<?xml version="1.0" encoding="UTF-8"?>
<svg id="Layer_2" data-name="Layer 2" xmlns="http://www.w3.org/2000/svg" viewBox="0 0 186.06 384.52">
  <defs>
    <style>
      .cls-1 {
        fill: #f7ff1b;
      }
    </style>
  </defs>
  <g id="Layer_1-2" data-name="Layer 1">
    <path class="cls-1" d="m93.24,79.92c0,22.49,0,44.99.02,67.48,0,1.65-.05,3.4.46,4.93.87,2.63,3.34,3.53,7.1,2.74,15.31-3.2,30.61-6.47,45.91-9.71,4.4-.93,8.87-1.59,13.18-2.81,14.84-4.2,30.36,9.73,25.11,26.83-5.02,16.38-9.81,32.83-14.67,49.25-15.03,50.7-30.07,101.4-45.03,152.12-1.93,6.53-5.3,11.38-12.21,13.18-9.98,2.6-19.41-3.61-20.87-13.83-.21-1.48-.32-2.98-.35-4.48-.79-35.48-1.56-70.96-2.35-106.44-.3-13.33-.62-26.65-.98-39.98-.14-5.27-2.46-7.14-7.71-6.27-21.02,3.47-42.04,6.97-63.06,10.44-9.44,1.56-16.35-2.58-17.65-10.92-.37-2.35.01-5.04.81-7.3,3.13-8.94,6.57-17.78,9.88-26.66.92-2.45,2.1-4.74,5.18-4.51,2.96.22,3.97,2.2,4.53,5.03.74,3.77,3.23,4.75,7.12,4.13,6.05-.96,8.77-4.15,10.1-10.32,11.8-54.46,23.96-108.85,36.03-163.25,1.53-6.91,5.69-10.33,11.26-9.41,4.83.8,7.97,4.24,8.14,9.29.15,4.49.04,9,.04,13.5,0,19,0,37.99,0,56.99Zm6.4,179.38c.28,14.32.55,28.63.83,42.95,0,.5.01,1,.04,1.5.23,4.39,1.86,6.66,4.96,6.97,2.83.28,4.89-1.54,5.96-5.56,8.28-31.16,16.54-62.33,24.75-93.51,1.59-6.05-1.22-8.98-7.48-7.84-7.85,1.43-15.69,2.96-23.51,4.55-5.77,1.17-6.8,2.5-6.66,8.49.34,14.15.73,28.3,1.11,42.45Z"/>
  </g>
</svg>