<?xml version="1.0" encoding="UTF-8"?>
<svg id="Layer_2" data-name="Layer 2" xmlns="http://www.w3.org/2000/svg" viewBox="0 0 912.62 1162.01">
  <defs>
    <style>
      .cls-1 {
        fill: #eaff2a;
      }
    </style>
  </defs>
  <g id="Layer_1-2" data-name="Layer 1">
    <path class="cls-1" d="m603.37,2.54c26.62,8.27,53.46,15.86,80.06,24.22,48.87,15.36,97.04,32.32,135.53,68.27l.07.07c3.66,3.46,18.18,29.65-10.45,20.03-29.89-9.46-140.16-45.35-189.09-60.38-1.93-.59-31.52-7.19-43.54,6.25-20.06,22.45-119.73,105.04-145.04,138.11-26.77,34.98-51.73,71.36-77.09,107.4-20.88,29.67-41.14,59.79-61.84,89.59-2.56,3.68-6.11,6.67-9.16,10.01-13.33,14.59-20.34,78.22-18.41,109.65.63,10.28.68,29.71,17.96,41.06,8.89,5.84,25.41,16.95,33.36,24.19,49.79,45.35,245.99,238.33,262.43,247.61.31.17.63.33.96.46,6.36,2.56,12.7-3.94,10.63-10.47-.39-1.23-.89-2.38-1.57-3.41-11.32-17.28-24.09-33.63-35.07-51.11-9.62-15.3-149.06-204.26-171.94-238.05-9.48-14.01-23.61-29.48-24.38-46.83-.65-14.74,6.35-70.46,7.99-73.34,3.11-5.45,56.17-104.14,95.45-164.19,47.48-72.58,82.48-108.33,84.09-110.07,14.03-15.17,27.68-30.93,43.34-44.29,11.17-9.53,25.91-6.29,39.09-2.09,27.48,8.76,53.41,17.76,79.35,27.02,22.46,8.01,43.21,17.24,66.13,24.1,26.38,7.9,53.66,22.12,85.43,35.56,38.93,16.47,42.24,38.15,52.7,73.9,7.7,26.31-5.5,39.63-20.26,55.92-22.07,24.36-54.71,45.91-82.96,61.35-36.85,20.14-42.57,21.92-76.98,38.49-34.08,16.42-91.01,32.98-125.07,49.44-.63.31-1.21.73-1.74,1.24-4.39,4.21-1.25,12.07,4.83,11.81.64-.03,1.25-.14,1.81-.37,33.97-13.78,68.27-21.33,102.21-35.18,21.39-8.72,44.19-17.26,65.44-26.3,37.19-15.83,71.58-40.03,104.94-63.07.29-.2.58-.38.89-.56,5.49-3.13,11.71,2.17,9.48,8.09-.22.59-.49,1.14-.82,1.66-14.25,30.47-29.16,51.49-43.12,78.59-16.36,31.76-30.9,52.17-52.44,80.83-17.47,23.23-43.92,42.86-64.47,62.55-33.99,32.57-76.04,67.22-108.18,101.68-11.24,12.05-21.3,25.23-31.26,38.38-.23.3-.42.62-.6.95-2.87,5.44,2.26,11.89,8.31,10.82,1.17-.21,2.23-.58,3.09-1.21,7.24-5.36,13.35-12.3,19.64-18.88,41.34-43.22,89.97-77.73,136.87-114.28,18.89-14.72,40.45-26.41,57.72-42.72,13.11-12.39,21.96-29.55,31.6-45.26,10.4-16.95,17.33-32.47,24.4-44.38.02-.04,1.41-2.79,1.44-2.83,3.91-6.37,14.04-4.19,15.11,3.21.23,1.57.21,3.06-.22,4.41-8.78,27.54-19.66,57.57-29.87,84.61-6.83,18.09-15.38,35.52-22.87,53.36-8.01,19.06-23.63,30.4-40.49,40.41-31.89,18.95-63.43,38.57-96.05,56.2-37.01,20-67,48.05-95.29,78.29-.51.54-.92,1.18-1.26,1.88-3.07,6.35,2.81,13.61,9.75,12.36,1.59-.29,2.96-.8,3.96-1.72,44.89-41.31,99.43-65.66,154.45-89.26,9.09-3.9,18.52-6.99,27.67-10.74,6.67-2.73,10.47-1.56,10.22,6.37-.4,12.23.4,14.43-.75,26.6-1.58,16.83,55.18,35.77,54.78,52.53-.28,11.75-6.51,110.52-80.19,186.68-104.51,108.02-226.14,204.27-296.47,204.24-73.14-.03-277.07-116.98-416.9-233.11C5.69,874.94,6.1,800.1.74,780.07c-9.55-35.69,76.32-22.81,70.92-59.38-2.88-19.49,16.53-36.76,36.42-37.06,31.66-.48,64.79,8.64,94.26,18.01,57.98,18.44,112.16,44.1,160.86,79.07,36.58,26.26,61.19,52.94,97.51,79.55,26.32,19.27,55.23,48.94,81.21,68.67,2.96,2.25,5.62,5.19,8.94,6.57.35.15.71.29,1.07.43,7.61,2.92,14.91-5.96,10.04-12.5-.23-.31-.48-.61-.75-.88-49.1-49.84-97.52-100.44-148.61-148.18-55.23-51.61-81.67-60.94-148.68-95.33-20.87-10.71-90.45-39.93-127.05-47.23-24.47-4.88-46.6-17.71-55.98-40.84-13.62-33.57-13.45-76.69-20.44-113.82-15.45-111.5,53.95-250.35,76.89-268.42,33.66-26.52,68.62-51.43,103.71-76.06,6.17-4.33,15.63-5.19,23.65-5.5,46.5-1.76,92.29-7.63,134.79-27.58,46.89-22,156.4-91.27,170.92-97.06s31.78-.35,32.96.02Zm-101.06,250.52c-.05,23.56,6.29,43.87,24.43,60.87,15.31,14.35,30.78,11.1,48.99,9.23,36.45-3.74,62.27-22.73,82.57-50.55,6.15-8.42,14.38-26.01,13.81-36.28-1.09-19.75-17.32-49.4-40.42-58.38-22.92-8.92-53.07-9.36-78.27-3.85-30.12,6.58-51.02,47.82-51.12,78.95Z"/>
  </g>
</svg>